<?xml version="1.0" standalone="no"?>
<!DOCTYPE svg PUBLIC "-//W3C//DTD SVG 20010904//EN"
 "http://www.w3.org/TR/2001/REC-SVG-20010904/DTD/svg10.dtd">
<svg version="1.0" xmlns="http://www.w3.org/2000/svg"
 width="98.000000pt" height="45.000000pt" viewBox="0 0 98.000000 45.000000"
 preserveAspectRatio="xMidYMid meet">

<g transform="translate(0.000000,45.000000) scale(0.100000,-0.100000)"
fill="#000000" stroke="none">
<path d="M42 408 c7 -19 38 -22 38 -4 0 10 -9 16 -21 16 -12 0 -19 -5 -17 -12z"/>
<path d="M7 303 c-4 -3 -7 -71 -7 -150 l0 -143 25 0 25 0 0 150 c0 139 -1 150
-18 150 -10 0 -22 -3 -25 -7z"/>
<path d="M757 286 c-7 -17 18 -40 33 -31 5 3 10 15 10 26 0 23 -35 27 -43 5z"/>
<path d="M880 255 c0 -24 -5 -35 -15 -35 -9 0 -15 -9 -15 -25 0 -16 6 -25 15
-25 12 0 15 -16 15 -80 0 -79 0 -80 25 -80 25 0 25 1 25 80 0 73 2 80 20 80
15 0 20 7 20 25 0 18 -5 25 -20 25 -16 0 -20 7 -20 35 0 31 -3 35 -25 35 -22
0 -25 -4 -25 -35z"/>
<path d="M195 221 c-11 -5 -35 -6 -52 -3 l-33 5 0 -107 0 -106 25 0 c24 0 25
2 25 68 0 72 16 102 52 102 15 0 28 19 28 41 0 11 -17 11 -45 0z"/>
<path d="M314 216 c-60 -26 -81 -93 -50 -155 23 -44 91 -65 137 -41 13 7 19 7
19 0 0 -5 11 -10 25 -10 l25 0 0 105 0 105 -25 0 c-14 0 -25 -4 -25 -9 0 -6
-12 -3 -27 5 -34 17 -39 17 -79 0z m80 -51 c26 -27 29 -56 9 -84 -25 -33 -56
-38 -82 -12 -28 28 -27 75 1 95 28 20 52 20 72 1z"/>
<path d="M540 118 c37 -101 38 -103 71 -106 l34 -3 37 106 38 106 -27 -3 c-23
-3 -30 -13 -51 -71 -14 -37 -28 -67 -31 -67 -4 0 -17 32 -30 70 -22 64 -27 70
-51 70 l-28 0 38 -102z"/>
<path d="M760 115 c0 -98 1 -105 20 -105 19 0 20 7 20 105 0 98 -1 105 -20
105 -19 0 -20 -7 -20 -105z"/>
</g>
</svg>
